<?xml version="1.0" encoding="UTF-8" standalone="no"?>
<svg
   width="100"
   height="100"
   viewBox="0 0 24 24"
   version="1.1"
   id="svg49"
   sodipodi:docname="12.svg"
   xml:space="preserve"
   inkscape:version="1.2 (dc2aedaf03, 2022-05-15)"
   xmlns:inkscape="http://www.inkscape.org/namespaces/inkscape"
   xmlns:sodipodi="http://sodipodi.sourceforge.net/DTD/sodipodi-0.dtd"
   xmlns="http://www.w3.org/2000/svg"
   xmlns:svg="http://www.w3.org/2000/svg"><defs
     id="defs53" /><sodipodi:namedview
     id="namedview51"
     pagecolor="#ffffff"
     bordercolor="#000000"
     borderopacity="0.25"
     inkscape:showpageshadow="2"
     inkscape:pageopacity="0.0"
     inkscape:pagecheckerboard="0"
     inkscape:deskcolor="#d1d1d1"
     showgrid="false"
     inkscape:zoom="8.12"
     inkscape:cx="46.6133"
     inkscape:cy="50"
     inkscape:window-width="1894"
     inkscape:window-height="1027"
     inkscape:window-x="1933"
     inkscape:window-y="40"
     inkscape:window-maximized="1"
     inkscape:current-layer="svg49" /><path
     style="fill:#a7915e;fill-opacity:1;stroke-width:0.154656"
     d="M 9.3538475,22.297429 C 7.4601594,21.825535 5.7741646,20.896978 4.4182045,19.579135 3.6836958,18.865274 2.7809499,17.686156 2.7809499,17.440642 c 0,-0.23076 4.3436068,-0.0206 5.7222873,0.276856 2.7967318,0.603421 5.0686178,1.521916 7.1663758,2.897273 l 1.212102,0.794695 -0.565045,0.289885 c -1.687531,0.865756 -4.81174,1.134113 -6.9628225,0.598078 z M 15.8138,18.570853 C 12.88544,17.946759 10.999543,15.805467 9.7507301,11.686696 9.570196,11.091268 9.3720779,10.523482 9.3104671,10.424947 9.1157231,10.113491 6.8460236,9.7462482 4.2733003,9.6099202 2.9071508,9.5375302 1.6885998,9.5169802 1.565409,9.5642502 1.1550857,9.7217052 1.471222,8.4475042 2.2289072,6.8899922 2.7816107,5.7538446 3.2009254,5.1547225 4.0835657,4.2400305 c 1.267206,-1.313222 1.162566,-1.2938363 2.5475623,-0.471968 1.867904,1.1084291 3.515321,3.0548912 3.947118,4.6636147 1.103767,4.1122428 1.575184,5.1237598 3.105982,6.6644728 0.859837,0.865406 1.302501,1.177587 2.151331,1.51718 1.306645,0.522752 3.184571,0.695144 4.580596,0.420492 0.5245,-0.103191 0.986881,-0.154372 1.027514,-0.113739 0.04063,0.04063 -0.109861,0.351526 -0.334431,0.690874 -0.325561,0.491955 -0.555141,0.654254 -1.132845,0.800844 -0.957916,0.243071 -3.341092,0.334131 -4.162593,0.159053 z m 5.249728,-4.930702 c -1.805346,-0.631126 -3.358978,-2.17511 -3.755324,-3.7320038 -0.32666,-1.283159 0.277542,-1.9342796 2.020982,-2.1779189 l 0.85061,-0.1188688 -0.812042,0.027135 -0.812042,0.027135 9.6e-5,-0.4888854 C 18.555931,6.5487471 18.159437,6.2140685 15.932335,4.9622836 13.970354,3.8595152 11.173609,2.5685531 9.3568223,1.9270635 L 8.1225459,1.4912518 8.8155249,1.2882121 c 5.9004961,-1.72881905 12.0784411,1.7121042 13.6918871,7.6259571 0.305295,1.1190118 0.452324,3.4773598 0.269269,4.3190908 -0.163563,0.752098 -0.498275,0.831596 -1.713153,0.406891 z"
     id="path1491" /></svg>
