<?xml version="1.0" encoding="UTF-8" standalone="no"?>
<svg
   width="100"
   height="100"
   viewBox="0 0 24 24"
   version="1.1"
   id="svg2414"
   sodipodi:docname="5.svg"
   inkscape:version="1.2 (dc2aedaf03, 2022-05-15)"
   xmlns:inkscape="http://www.inkscape.org/namespaces/inkscape"
   xmlns:sodipodi="http://sodipodi.sourceforge.net/DTD/sodipodi-0.dtd"
   xmlns="http://www.w3.org/2000/svg"
   xmlns:svg="http://www.w3.org/2000/svg">
  <defs
     id="defs2418" />
  <sodipodi:namedview
     id="namedview2416"
     pagecolor="#ffffff"
     bordercolor="#000000"
     borderopacity="0.25"
     inkscape:showpageshadow="2"
     inkscape:pageopacity="0.0"
     inkscape:pagecheckerboard="0"
     inkscape:deskcolor="#d1d1d1"
     showgrid="false"
     inkscape:zoom="8.12"
     inkscape:cx="47.352217"
     inkscape:cy="50"
     inkscape:window-width="1894"
     inkscape:window-height="1027"
     inkscape:window-x="1933"
     inkscape:window-y="40"
     inkscape:window-maximized="1"
     inkscape:current-layer="svg2414" />
  <g
     id="Element/Icon/Faction/ShadowIsles"
     stroke="none"
     stroke-width="1"
     fill="#10b981"
     fill-rule="nonzero"
     style="fill:#00bfa5;fill-opacity:1">
    <path
       d="M11.5514286,4.04571429 C11.5514286,4.04571429 12.5114286,6.03428571 13.4714286,7.13142857 C15.0485714,8.91428571 17.1742857,11.52 17.1742857,11.52 C17.4485714,10.2171429 16.2828571,8.57142857 16.2828571,8.57142857 C16.2828571,8.57142857 17.5171429,9.05142857 18.6828571,10.2171429 C19.9171429,11.3828571 20.5342857,13.92 20.5342857,16.8 C20.5342857,19.7485714 17.0371429,23.6571919 11.4828571,23.6571919 C11.4828571,23.6571919 1.47142857,23.7942857 3.18571429,13.7142857 C3.87142857,18.0342857 6.47714286,21.8742857 11.5514286,21.9428571 C15.2542857,22.0114286 16.9,18.8571429 16.9,18.8571429 C14.0885714,20.5028571 11.6885714,20.2971429 11.6885714,20.2971429 C9.08285714,20.2971429 7.78,18.5142857 7.02571429,16.1828571 C7.98571429,13.9885714 9.08285714,11.8628571 11.6885714,11.8628571 C14.2942857,11.8628571 15.1171429,15.36 15.1171429,15.36 C15.1171429,15.36 13.9514286,13.44 11.6885714,13.3714286 C9.49428571,13.3714286 8.53428571,14.9485714 7.71142857,16.1828571 C8.39714286,17.4857143 9.49428571,18.5142857 11.6885714,18.5142857 C13.8142857,18.5142857 17.1742857,16.1828571 17.1742857,16.1828571 C16.9094581,10.2242365 11.9142619,9.95484287 11.5700805,9.94334917 L11.5514286,9.94285714 C4.9,11.3142857 5.79142857,16.6628571 5.79142857,16.6628571 C3.87142857,14.2628571 4.62571429,11.3142857 5.10571429,9.87428571 C5.79142857,7.88571429 7.64285714,6.85714286 7.64285714,6.85714286 C7.64285714,6.85714286 6.54571429,9.32571429 6.95714286,9.94285714 C6.95714286,9.94285714 8.53428571,8.29714286 9.56285714,7.2 C10.66,6.03428571 11.5514286,4.04571429 11.5514286,4.04571429 Z M11.5514286,14.8114286 C12.3088477,14.8114286 12.9228571,15.4254381 12.9228571,16.1828571 C12.9228571,16.9402762 12.3088477,17.5542857 11.5514286,17.5542857 C10.7940095,17.5542857 10.18,16.9402762 10.18,16.1828571 C10.18,15.4254381 10.7940095,14.8114286 11.5514286,14.8114286 Z M12.9228571,0.342857143 C12.9228571,0.342857143 13.1971429,1.57714286 14.2942857,2.4 C15.3914286,3.22285714 16.6257143,4.11428571 16.7628571,6.51428571 C16.7628571,6.51428571 15.5285714,5.21142857 14.0885714,4.45714286 C12.7171429,3.77142857 12.3057143,1.71428571 12.9228571,0.342857143 Z"
       id="Icon"
       style="fill:#00bfa5;fill-opacity:1" />
  </g>
</svg>
