<?xml version="1.0" encoding="UTF-8" standalone="no"?>
<svg
   width="100"
   height="100"
   viewBox="0 0 33 33"
   version="1.1"
   id="svg577"
   sodipodi:docname="9.svg"
   inkscape:version="1.2 (dc2aedaf03, 2022-05-15)"
   xmlns:inkscape="http://www.inkscape.org/namespaces/inkscape"
   xmlns:sodipodi="http://sodipodi.sourceforge.net/DTD/sodipodi-0.dtd"
   xmlns="http://www.w3.org/2000/svg"
   xmlns:svg="http://www.w3.org/2000/svg">
  <defs
     id="defs581" />
  <sodipodi:namedview
     id="namedview579"
     pagecolor="#ffffff"
     bordercolor="#000000"
     borderopacity="0.25"
     inkscape:showpageshadow="2"
     inkscape:pageopacity="0.0"
     inkscape:pagecheckerboard="0"
     inkscape:deskcolor="#d1d1d1"
     showgrid="false"
     inkscape:zoom="8.12"
     inkscape:cx="47.475369"
     inkscape:cy="40.147783"
     inkscape:window-width="1894"
     inkscape:window-height="1027"
     inkscape:window-x="1933"
     inkscape:window-y="40"
     inkscape:window-maximized="1"
     inkscape:current-layer="svg577" />
  <path
     d="m 33.2,5 c 0,0 -0.7,0.1 -1.4,0.1 -0.5,-0.9 -1.4,-1.5 -2.5,-1.5 -1.5,0 -2.8,1.2 -2.9,2.7 l -2.9,1 C 21.7,5.2 19,3.8 15.9,3.8 10.7,3.8 6.5,7.8 6,12.9 L 4.2,13.5 C 3.9,13.2 3.5,13.1 3,13.1 c -1,0 -1.9,0.8 -1.9,1.9 0,1 0.8,1.9 1.9,1.9 0.9,0 1.6,-0.6 1.8,-1.4 L 6,15.2 c 0.2,1.4 0.7,2.8 1.4,3.9 L 8.2,16.4 C 7.9,15.6 7.8,14.8 7.8,13.9 c 0,-4.5 3.6,-8.1 8,-8.1 4.4,0 8,3.6 8,8.1 0,1.5 -0.4,2.9 -1.1,4.1 l 0.6,2.4 c 1.6,-1.7 2.5,-4 2.5,-6.6 0,-1.6 -0.4,-3.1 -1,-4.4 l 2.3,-1 c 0.5,0.6 1.3,1 2.2,1 1.6,0 2.9,-1.3 2.9,-2.9 0,-0.1 0,-0.3 0,-0.4 z"
     id="path572"
     style="fill:#aa00ff;fill-rule:nonzero;fill-opacity:1" />
  <path
     d="M 16.1,11.7 16,9.1 15.8,9 c -1,0.8 -3.2,2.8 -3.2,2.8 l -2,12 3.1,2.7 1.7,-4.7 L 16,32.9 20.3,26 18.2,12.4 Z"
     id="path574"
     style="fill:#aa00ff;fill-rule:nonzero;fill-opacity:1" />
</svg>
